<svg xmlns="http://www.w3.org/2000/svg" viewBox="0 0 7350.1059 1203.3564">
  <defs>
    <style>
      .cls-1 {
        fill: none;
      }

      .cls-2 {
        fill: #fff;
      }
    </style>
  </defs>
  <g id="Artboard_outline" data-name="Artboard outline">
    <rect class="cls-1" width="7350.1059" height="1203.3564"/>
  </g>
  <g id="Lockup">
    <g>
      <g>
        <path class="cls-2" d="M1128.6917,416.2923h75.2206L1331.82,647.6635l127.9048-231.3712h73.5907V796.478h-61.3715V505.09L1359.7908,706.864H1302.22L1190.0633,505.09V796.478h-61.3716Z"/>
        <path class="cls-2" d="M1731.2828,803.2633q-42.6409,0-74.9517-18.8716a131.9856,131.9856,0,0,1-50.3739-52.2727q-18.0663-33.4011-18.0582-76.5815,0-43.7248,17.65-77.3981,17.6482-33.6636,49.0162-52.681,31.3645-19.0044,72.1-19.0077,40.4586,0,69.657,19.1438,29.1871,19.14,44.9431,53.6336,15.7431,34.49,15.7479,80.9236v16.8366H1648.7261q5.7061,34.7621,28.1065,54.7224,22.4067,19.9571,56.6212,19.96,27.4277,0,47.2534-8.1461,19.8162-8.156,37.2021-24.7171l32.5878,39.9206Q1801.8827,803.27,1731.2828,803.2633Zm44.807-225.5322q-19.2864-19.6849-50.51-19.6881-30.4167,0-50.9182,20.0964-20.5063,20.1028-25.9355,54.0419H1798.085Q1795.3681,597.429,1776.09,577.7311Z"/>
        <path class="cls-2" d="M1931.43,563.4737h-56.4851V513.2359H1931.43V430.1414h59.2v83.0945h85.8132v50.2378h-85.8132V690.8374q0,31.7778,10.8616,45.3514,10.8582,13.58,37.202,13.5769a174.669,174.669,0,0,0,19.8242-.9462q8.1462-.9526,17.9254-2.5792v49.6934a168.2113,168.2113,0,0,1-22.6757,4.8864,178.272,178.272,0,0,1-26.4766,1.9053q-95.8679,0-95.8614-104.8241Z"/>
        <path class="cls-2" d="M2384.9443,796.478h-58.1149V756.83a105.0236,105.0236,0,0,1-39.3763,34.3538q-23.8989,12.0734-54.3141,12.08-37.4742,0-66.3972-19.1438-28.92-19.1406-45.4843-52.681-16.5693-33.5371-16.5645-76.7176,0-43.4429,16.8367-76.8537,16.8318-33.4011,46.57-52.4088,29.7363-19.0044,68.2992-19.0077,29.0559,0,52.14,11.27a103.1173,103.1173,0,0,1,38.2908,31.9041V513.2359h58.1149Zm-59.2-184.1209q-9.5118-24.1663-30.0085-38.1515-20.5063-13.9884-47.3895-13.9852-38.0185,0-60.5582,25.5272-22.5429,25.5272-22.5364,68.9733,0,43.7247,21.7231,69.2455,21.7213,25.5367,58.9283,25.5271,27.4277,0,48.8833-14.1213a79.7941,79.7941,0,0,0,30.9579-38.0153Z"/>
        <path class="cls-2" d="M2529.1382,416.2923h155.603q64.9019,0,98.1717,26.2011,33.26,26.2174,33.2651,72.1035,0,63.0014-60.83,84.7276,79.2936,20.0933,79.2969,92.8738,0,49.1491-35.4393,76.7177-35.4376,27.5587-101.7,27.562H2529.1382Zm148.27,162.6636q75.77,0,75.7682-55.1242,0-27.4324-17.7893-40.1928-17.7894-12.7635-54.9914-12.7668H2590.51V578.9559Zm18.1976,162.9359q76.0323,0,76.0371-57.0295,0-26.334-17.9254-39.7781-17.9205-13.4441-61.9159-13.4473H2590.51V741.8918Z"/>
        <path class="cls-2" d="M3128.1973,796.478h-58.3839V755.7408q-32.5894,47.5257-90.1585,47.5225-49.97,0-76.7176-31.4959-26.752-31.5055-26.7488-90.1584V513.2359h59.2V674.5451q0,39.3795,13.8491,58.2479,13.8523,18.8779,43.4494,18.878,25.5222,0,45.3514-13.4473,19.8209-13.4343,30.9579-37.607V513.2359h59.2Z"/>
        <path class="cls-2" d="M3386.988,779.2331q-31.5055,24.03-84.4555,24.03-44.8038,0-78.072-15.748-33.27-15.7479-49.5606-42.3638l39.9206-34.7621q12.4866,19.0141,34.4867,30.1479,21.9984,11.13,52.412,11.1337,56.7557,0,56.7573-33.1354,0-14.1149-9.371-22.6757-9.3662-8.5545-30.8218-12.08l-54.5831-9.5071q-38.5629-6.7851-58.9283-27.426-20.37-20.6374-20.3686-53.2253,0-39.37,31.3662-63.2768,31.3647-23.8941,84.8638-23.8941,38.83,0,69.6537,15.884,30.82,15.8841,45.76,41.139l-41.0061,30.958q-10.3236-16.827-30.6858-26.61-20.37-9.7792-47.2534-9.7792-25.255,0-38.968,8.6905-13.7163,8.7-13.713,24.1727,0,13.308,8.4183,20.6343,8.4135,7.3394,28.2426,10.868l61.3715,10.8615q36.93,6.513,56.4851,27.8343,19.5537,21.318,19.552,53.6336Q3418.49,755.2063,3386.988,779.2331Z"/>
        <path class="cls-2" d="M3472.26,465.3052q-10.8679-10.7221-10.8647-27.29,0-16.8366,10.8647-27.426,10.8583-10.5957,27.97-10.5893,17.1089,0,27.97,10.5893,10.8582,10.5861,10.8615,27.426,0,16.5645-10.8615,27.29-10.8631,10.7319-27.97,10.732Q3483.1216,476.0372,3472.26,465.3052Zm-1.63,47.9307h59.2V796.478h-59.2Z"/>
        <path class="cls-2" d="M3595,513.2359h58.3839v41.2816q32.8569-48.07,91.5162-48.0668,50.5147,0,77.667,31.5023,27.1554,31.5055,27.157,90.1585V796.478h-59.2V635.1689q0-39.642-14.1213-58.384-14.1246-18.7419-44.2659-18.7419-26.3389,0-46.4369,13.5833-20.0981,13.58-31.4991,38.0154V796.478H3595Z"/>
        <path class="cls-2" d="M4038.7281,803.2633q-42.6409,0-74.9517-18.8716a131.9856,131.9856,0,0,1-50.3739-52.2727q-18.0663-33.4011-18.0582-76.5815,0-43.7248,17.65-77.3981,17.6482-33.6636,49.0162-52.681,31.3646-19.0044,72.1-19.0077,40.4586,0,69.657,19.1438,29.1871,19.14,44.9431,53.6336,15.7431,34.49,15.7479,80.9236v16.8366H3956.1714q5.7061,34.7621,28.1065,54.7224,22.4067,19.9571,56.6212,19.96,27.4277,0,47.2534-8.1461,19.8162-8.156,37.2021-24.7171l32.5878,39.9206Q4109.328,803.27,4038.7281,803.2633Zm44.807-225.5322q-19.2864-19.6849-50.51-19.6881-30.4167,0-50.9182,20.0964-20.5064,20.1028-25.9355,54.0419H4105.53Q4102.8134,597.429,4083.5351,577.7311Z"/>
        <path class="cls-2" d="M4407.2357,779.2331q-31.5054,24.03-84.4554,24.03-44.8038,0-78.0721-15.748-33.27-15.7479-49.5606-42.3638l39.9207-34.7621q12.4865,19.0141,34.4866,30.1479,21.9985,11.13,52.4121,11.1337,56.7557,0,56.7572-33.1354,0-14.1149-9.3709-22.6757-9.3661-8.5545-30.8219-12.08l-54.583-9.5071q-38.563-6.7851-58.9283-27.426-20.37-20.6374-20.3686-53.2253,0-39.37,31.3662-63.2768,31.3645-23.8941,84.8637-23.8941,38.83,0,69.6538,15.884,30.82,15.8841,45.76,41.139l-41.0062,30.958q-10.3236-16.827-30.6857-26.61-20.37-9.7792-47.2535-9.7792-25.255,0-38.968,8.6905-13.7162,8.7-13.713,24.1727,0,13.308,8.4184,20.6343,8.4134,7.3394,28.2425,10.868l61.3715,10.8615q36.93,6.513,56.4851,27.8343,19.5537,21.318,19.5521,53.6336Q4438.7381,755.2063,4407.2357,779.2331Z"/>
        <path class="cls-2" d="M4684.5,779.2331q-31.5055,24.03-84.4555,24.03-44.8038,0-78.0721-15.748-33.27-15.7479-49.56-42.3638l39.9206-34.7621q12.4866,19.0141,34.4867,30.1479,21.9984,11.13,52.412,11.1337,56.7556,0,56.7573-33.1354,0-14.1149-9.371-22.6757-9.3661-8.5545-30.8218-12.08l-54.5831-9.5071q-38.5629-6.7851-58.9283-27.426-20.37-20.6374-20.3686-53.2253,0-39.37,31.3662-63.2768,31.3647-23.8941,84.8638-23.8941,38.83,0,69.6537,15.884,30.82,15.8841,45.76,41.139l-41.0061,30.958q-10.3237-16.827-30.6858-26.61-20.37-9.7792-47.2535-9.7792-25.2549,0-38.9679,8.6905-13.7163,8.7-13.713,24.1727,0,13.308,8.4183,20.6343,8.4135,7.3394,28.2425,10.868l61.3715,10.8615q36.93,6.513,56.4852,27.8343,19.5535,21.318,19.552,53.6336Q4716.0018,755.2063,4684.5,779.2331Z"/>
        <path class="cls-2" d="M4841.7356,416.2923h144.1971q72.7758,0,112.293,32.9928,39.5108,32.993,39.5124,94.6366,0,61.3779-39.3763,94.5069-39.38,33.129-112.4291,33.129h-82.009v124.92h-62.1881Zm139.0385,199.3245q47.793,0,70.6064-17.6532,22.81-17.6435,22.8118-53.77,0-37.2021-22.9479-54.58-22.951-17.3811-70.47-17.3811h-76.85V615.6168Z"/>
        <path class="cls-2" d="M5439.437,796.478h-58.115V756.83a105.0236,105.0236,0,0,1-39.3763,34.3538q-23.8989,12.0734-54.3141,12.08-37.4742,0-66.3972-19.1438-28.92-19.1406-45.4842-52.681-16.5694-33.5371-16.5645-76.7176,0-43.4429,16.8367-76.8537,16.8317-33.4011,46.57-52.4088,29.7363-19.0044,68.2993-19.0077,29.0559,0,52.14,11.27a103.1173,103.1173,0,0,1,38.2908,31.9041V513.2359h58.115Zm-59.2-184.1209q-9.512-24.1663-30.0085-38.1515-20.5064-13.9884-47.39-13.9852-38.0185,0-60.5582,25.5272-22.5428,25.5272-22.5363,68.9733,0,43.7247,21.723,69.2455,21.7215,25.5367,58.9283,25.5271,27.4277,0,48.8834-14.1213a79.7953,79.7953,0,0,0,30.9579-38.0153Z"/>
        <path class="cls-2" d="M5499.1754,513.2359h58.3839V555.6q25.255-46.437,70.6064-46.4337a109.5615,109.5615,0,0,1,17.381,1.3544V565.379q-8.9626-.8166-18.1943-.8165-51.5988,0-68.9765,49.9656v181.95h-59.2Z"/>
        <path class="cls-2" d="M5719.131,563.4737h-40.4618V513.2359h40.4618V430.1414h59.2v83.0945h85.8131v50.2378h-85.8131V690.8374q0,31.7778,10.8647,45.3514,10.8583,13.58,37.202,13.5769a174.67,174.67,0,0,0,19.8243-.9462q8.146-.9526,17.9221-2.5792v49.6934a168.0461,168.0461,0,0,1-22.6724,4.8864,178.2864,178.2864,0,0,1-26.48,1.9053q-95.8629,0-95.8613-104.8241Z"/>
        <path class="cls-2" d="M5911.936,513.2359H5970.32v41.2816q32.8567-48.07,91.5161-48.0668,50.5149,0,77.6671,31.5023,27.1554,31.5055,27.157,90.1585V796.478h-59.2V635.1689q0-39.642-14.1212-58.384-14.1246-18.7419-44.2659-18.7419-26.3389,0-46.4369,13.5833-20.098,13.58-31.4991,38.0154V796.478h-59.2Z"/>
        <path class="cls-2" d="M6355.6643,803.2633q-42.641,0-74.9517-18.8716a131.985,131.985,0,0,1-50.3739-52.2727q-18.0663-33.4011-18.0582-76.5815,0-43.7248,17.65-77.3981,17.6484-33.6636,49.0162-52.681,31.3647-19.0044,72.1-19.0077,40.4586,0,69.657,19.1438,29.1871,19.14,44.9431,53.6336,15.7431,34.49,15.7479,80.9236v16.8366H6273.1076q5.7061,34.7621,28.1065,54.7224,22.4067,19.9571,56.6212,19.96,27.4275,0,47.2534-8.1461,19.8162-8.156,37.202-24.7171l32.5879,39.9206Q6426.2642,803.27,6355.6643,803.2633Zm44.807-225.5322q-19.2864-19.6849-50.51-19.6881-30.4169,0-50.9182,20.0964-20.5064,20.1028-25.9355,54.0419h149.3589Q6419.75,597.429,6400.4713,577.7311Z"/>
        <path class="cls-2" d="M6531.3637,513.2359h58.3839v43.4526q27.4277-47.5159,74.9517-47.5224,15.48,0,25.2549,2.7154v54.58a194.31,194.31,0,0,0-26.8848-1.8988q-53.227,0-72.5052,47.7946V796.478h-59.2Z"/>
        <path class="cls-2" d="M6918.6036,779.2331q-31.5055,24.03-84.4555,24.03-44.8038,0-78.0721-15.748-33.27-15.7479-49.56-42.3638l39.9206-34.7621q12.4866,19.0141,34.4866,30.1479,21.9985,11.13,52.4121,11.1337,56.7557,0,56.7573-33.1354,0-14.1149-9.371-22.6757-9.3661-8.5545-30.8218-12.08l-54.5831-9.5071q-38.5629-6.7851-58.9283-27.426-20.37-20.6374-20.3686-53.2253,0-39.37,31.3662-63.2768,31.3647-23.8941,84.8638-23.8941,38.83,0,69.6537,15.884,30.82,15.8841,45.76,41.139l-41.0061,30.958q-10.3238-16.827-30.6858-26.61-20.37-9.7792-47.2535-9.7792-25.2549,0-38.9679,8.6905-13.7163,8.7-13.713,24.1727,0,13.308,8.4183,20.6343,8.4135,7.3394,28.2425,10.868l61.3715,10.8615q36.93,6.513,56.4852,27.8343,19.5536,21.318,19.552,53.6336Q6950.1059,755.2063,6918.6036,779.2331Z"/>
      </g>
      <path class="cls-2" d="M832,403.3565c-49.3565,0-87.9392,37.1744-122.8656,84.3972C661.1389,426.6426,621,403.3565,572.9655,403.3565,475.0345,403.3565,400,530.8047,400,665.7013c0,84.4138,40.8382,137.6551,109.2414,137.6551,49.2322,0,84.64-23.21,147.5862-133.2413,0,0,26.2389-46.3365,44.29-78.2554q9.4881,15.3191,19.9859,33.014l29.5172,49.6552C808.12,770.748,840.1561,803.3564,898.2068,803.3564c66.6384,0,103.7242-53.9693,103.7242-140.1379C1001.931,521.9772,925.2047,403.3565,832,403.3565ZM608.8276,640.322c-51.0345,80-68.69,97.931-97.1035,97.931-29.2414,0-46.6207-25.6713-46.6207-71.4483,0-97.931,48.8276-198.0689,107.0345-198.0689,31.5205,0,57.8615,18.2041,98.2089,75.9652C632.0352,603.4654,608.8276,640.322,608.8276,640.322Zm192.6113-10.0712-35.292-58.8593q-14.3261-23.2992-27.5353-42.8921c31.8079-49.0941,58.0453-73.5567,89.25-73.5567,64.8276,0,116.69,95.4482,116.69,212.69,0,44.69-14.6374,70.6207-44.9656,70.6207C870.5179,738.253,856.6314,719.0554,801.4389,630.2508Z"/>
      <path class="cls-2" d="M766.1469,571.3914c-76.5135-124.44-127.4563-168.0349-193.1814-168.0349l-.8276,65.3793c43.0345,0,76.4138,33.931,148.9655,156.1379l4.4227,7.44Z"/>
    </g>
  </g>
</svg>
